<mxfile host="app.diagrams.net" agent="Mozilla/5.0 (Windows NT 10.0; Win64; x64) AppleWebKit/537.36 (KHTML, like Gecko) Chrome/136.0.0.0 Safari/537.36 Edg/136.0.0.0" version="27.0.3">
  <diagram name="Trang-1" id="3A4ed4nSrF4rGRUyXT3c">
    <mxGraphModel dx="1227" dy="606" grid="1" gridSize="10" guides="1" tooltips="1" connect="1" arrows="1" fold="1" page="1" pageScale="1" pageWidth="827" pageHeight="1169" math="0" shadow="0">
      <root>
        <mxCell id="0" />
        <mxCell id="1" parent="0" />
        <mxCell id="KvKa5CTqsHm_TzjMAM7W-19" style="edgeStyle=orthogonalEdgeStyle;rounded=0;orthogonalLoop=1;jettySize=auto;html=1;entryX=0;entryY=0.5;entryDx=0;entryDy=0;" edge="1" parent="1" source="KvKa5CTqsHm_TzjMAM7W-1" target="KvKa5CTqsHm_TzjMAM7W-17">
          <mxGeometry relative="1" as="geometry">
            <Array as="points">
              <mxPoint x="121" y="420" />
            </Array>
          </mxGeometry>
        </mxCell>
        <mxCell id="KvKa5CTqsHm_TzjMAM7W-1" value="Customers" style="shape=umlActor;verticalLabelPosition=bottom;verticalAlign=top;html=1;outlineConnect=0;" vertex="1" parent="1">
          <mxGeometry x="91" y="170" width="60" height="100" as="geometry" />
        </mxCell>
        <mxCell id="KvKa5CTqsHm_TzjMAM7W-29" style="rounded=0;orthogonalLoop=1;jettySize=auto;html=1;entryX=1;entryY=1;entryDx=0;entryDy=0;" edge="1" parent="1" source="KvKa5CTqsHm_TzjMAM7W-6" target="KvKa5CTqsHm_TzjMAM7W-18">
          <mxGeometry relative="1" as="geometry" />
        </mxCell>
        <mxCell id="KvKa5CTqsHm_TzjMAM7W-6" value="Database" style="shape=cylinder;whiteSpace=wrap;html=1;" vertex="1" parent="1">
          <mxGeometry x="581" y="370" width="120" height="100" as="geometry" />
        </mxCell>
        <mxCell id="KvKa5CTqsHm_TzjMAM7W-22" style="edgeStyle=orthogonalEdgeStyle;rounded=0;orthogonalLoop=1;jettySize=auto;html=1;entryX=0.5;entryY=1;entryDx=0;entryDy=0;" edge="1" parent="1" source="KvKa5CTqsHm_TzjMAM7W-17" target="KvKa5CTqsHm_TzjMAM7W-18">
          <mxGeometry relative="1" as="geometry">
            <mxPoint x="311" y="200" as="targetPoint" />
          </mxGeometry>
        </mxCell>
        <mxCell id="KvKa5CTqsHm_TzjMAM7W-17" value="Carts" style="ellipse;whiteSpace=wrap;html=1;" vertex="1" parent="1">
          <mxGeometry x="291" y="380" width="120" height="80" as="geometry" />
        </mxCell>
        <mxCell id="KvKa5CTqsHm_TzjMAM7W-23" style="edgeStyle=orthogonalEdgeStyle;rounded=0;orthogonalLoop=1;jettySize=auto;html=1;entryX=0.5;entryY=0;entryDx=0;entryDy=0;" edge="1" parent="1" source="KvKa5CTqsHm_TzjMAM7W-18" target="KvKa5CTqsHm_TzjMAM7W-6">
          <mxGeometry relative="1" as="geometry" />
        </mxCell>
        <mxCell id="KvKa5CTqsHm_TzjMAM7W-18" value="System&amp;nbsp;" style="ellipse;whiteSpace=wrap;html=1;" vertex="1" parent="1">
          <mxGeometry x="291" y="100" width="120" height="80" as="geometry" />
        </mxCell>
        <mxCell id="KvKa5CTqsHm_TzjMAM7W-20" value="1" style="text;html=1;align=center;verticalAlign=middle;resizable=0;points=[];autosize=1;strokeColor=none;fillColor=none;" vertex="1" parent="1">
          <mxGeometry x="96" y="288" width="30" height="30" as="geometry" />
        </mxCell>
        <mxCell id="KvKa5CTqsHm_TzjMAM7W-21" value="Thao tác trên Carts" style="text;html=1;align=center;verticalAlign=middle;resizable=0;points=[];autosize=1;strokeColor=none;fillColor=none;" vertex="1" parent="1">
          <mxGeometry x="131" y="390" width="130" height="30" as="geometry" />
        </mxCell>
        <mxCell id="KvKa5CTqsHm_TzjMAM7W-24" value="2" style="text;html=1;align=center;verticalAlign=middle;resizable=0;points=[];autosize=1;strokeColor=none;fillColor=none;" vertex="1" parent="1">
          <mxGeometry x="346" y="358" width="30" height="30" as="geometry" />
        </mxCell>
        <mxCell id="KvKa5CTqsHm_TzjMAM7W-25" value="3" style="text;html=1;align=center;verticalAlign=middle;resizable=0;points=[];autosize=1;strokeColor=none;fillColor=none;" vertex="1" parent="1">
          <mxGeometry x="406" y="118" width="30" height="30" as="geometry" />
        </mxCell>
        <mxCell id="KvKa5CTqsHm_TzjMAM7W-26" value="Cập nhật giỏ hàng" style="text;html=1;align=center;verticalAlign=middle;resizable=0;points=[];autosize=1;strokeColor=none;fillColor=none;" vertex="1" parent="1">
          <mxGeometry x="451" y="118" width="120" height="30" as="geometry" />
        </mxCell>
        <mxCell id="KvKa5CTqsHm_TzjMAM7W-27" value="" style="endArrow=classic;html=1;rounded=0;entryX=0.523;entryY=0.053;entryDx=0;entryDy=0;entryPerimeter=0;" edge="1" parent="1" target="KvKa5CTqsHm_TzjMAM7W-26">
          <mxGeometry width="50" height="50" relative="1" as="geometry">
            <mxPoint x="461" y="120" as="sourcePoint" />
            <mxPoint x="511" y="70" as="targetPoint" />
            <Array as="points">
              <mxPoint x="511" y="120" />
            </Array>
          </mxGeometry>
        </mxCell>
        <mxCell id="KvKa5CTqsHm_TzjMAM7W-28" value="" style="endArrow=classic;html=1;rounded=0;" edge="1" parent="1">
          <mxGeometry width="50" height="50" relative="1" as="geometry">
            <mxPoint x="651" y="240" as="sourcePoint" />
            <mxPoint x="651" y="310" as="targetPoint" />
          </mxGeometry>
        </mxCell>
        <mxCell id="KvKa5CTqsHm_TzjMAM7W-30" value="4" style="text;html=1;align=center;verticalAlign=middle;resizable=0;points=[];autosize=1;strokeColor=none;fillColor=none;" vertex="1" parent="1">
          <mxGeometry x="541" y="390" width="30" height="30" as="geometry" />
        </mxCell>
        <mxCell id="KvKa5CTqsHm_TzjMAM7W-31" value="Xác nhận thay đổi" style="text;html=1;align=center;verticalAlign=middle;resizable=0;points=[];autosize=1;strokeColor=none;fillColor=none;" vertex="1" parent="1">
          <mxGeometry x="481" y="205" width="120" height="30" as="geometry" />
        </mxCell>
        <mxCell id="KvKa5CTqsHm_TzjMAM7W-33" value="" style="endArrow=classic;html=1;rounded=0;entryX=0.183;entryY=1.133;entryDx=0;entryDy=0;entryPerimeter=0;" edge="1" parent="1" target="KvKa5CTqsHm_TzjMAM7W-31">
          <mxGeometry width="50" height="50" relative="1" as="geometry">
            <mxPoint x="561" y="290" as="sourcePoint" />
            <mxPoint x="531" y="320" as="targetPoint" />
          </mxGeometry>
        </mxCell>
        <mxCell id="KvKa5CTqsHm_TzjMAM7W-34" style="edgeStyle=orthogonalEdgeStyle;rounded=0;orthogonalLoop=1;jettySize=auto;html=1;entryX=0.5;entryY=0;entryDx=0;entryDy=0;entryPerimeter=0;" edge="1" parent="1" source="KvKa5CTqsHm_TzjMAM7W-18" target="KvKa5CTqsHm_TzjMAM7W-1">
          <mxGeometry relative="1" as="geometry">
            <Array as="points">
              <mxPoint x="351" y="70" />
              <mxPoint x="121" y="70" />
            </Array>
          </mxGeometry>
        </mxCell>
        <mxCell id="KvKa5CTqsHm_TzjMAM7W-35" value="5" style="text;html=1;align=center;verticalAlign=middle;resizable=0;points=[];autosize=1;strokeColor=none;fillColor=none;" vertex="1" parent="1">
          <mxGeometry x="326" y="78" width="30" height="30" as="geometry" />
        </mxCell>
        <mxCell id="KvKa5CTqsHm_TzjMAM7W-36" value="Hiện thị Carts mới" style="text;html=1;align=center;verticalAlign=middle;resizable=0;points=[];autosize=1;strokeColor=none;fillColor=none;" vertex="1" parent="1">
          <mxGeometry x="151" y="40" width="120" height="30" as="geometry" />
        </mxCell>
        <mxCell id="KvKa5CTqsHm_TzjMAM7W-37" value="" style="endArrow=classic;html=1;rounded=0;" edge="1" parent="1">
          <mxGeometry width="50" height="50" relative="1" as="geometry">
            <mxPoint x="256" y="40" as="sourcePoint" />
            <mxPoint x="166" y="40" as="targetPoint" />
          </mxGeometry>
        </mxCell>
        <mxCell id="KvKa5CTqsHm_TzjMAM7W-38" value="" style="endArrow=classic;html=1;rounded=0;" edge="1" parent="1">
          <mxGeometry width="50" height="50" relative="1" as="geometry">
            <mxPoint x="331" y="320" as="sourcePoint" />
            <mxPoint x="331" y="270" as="targetPoint" />
          </mxGeometry>
        </mxCell>
      </root>
    </mxGraphModel>
  </diagram>
</mxfile>
